<svg width="151" height="127" viewBox="0 0 151 127" fill="none" xmlns="http://www.w3.org/2000/svg">
<path d="M75.1813 0L70.9304 35.5783L60.7766 31.4213L64.9635 41.6039L45.6978 45.8862L64.9635 50.1414L60.7766 60.3477L70.9304 56.167L75.1813 91.769L79.4323 56.167L89.5826 60.3477L85.4665 50.1414L104.665 45.8862L85.4665 41.9289L89.5826 31.4213L79.4323 35.5783L75.1813 0Z" fill="#F1E7B2"/>
<path d="M19.2549 50.4663C21.774 50.4663 23.816 48.4157 23.816 45.8862C23.816 43.3566 21.774 41.306 19.2549 41.306C16.7359 41.306 14.6938 43.3566 14.6938 45.8862C14.6938 48.4157 16.7359 50.4663 19.2549 50.4663Z" fill="#E8EAF6"/>
<path d="M131.108 50.4663C133.627 50.4663 135.669 48.4157 135.669 45.8862C135.669 43.3566 133.627 41.306 131.108 41.306C128.589 41.306 126.547 43.3566 126.547 45.8862C126.547 48.4157 128.589 50.4663 131.108 50.4663Z" fill="#E8EAF6"/>
<path d="M103.667 116.779L98.3003 105.74" stroke="#F1E7B2" stroke-miterlimit="10"/>
<path d="M53.9434 105.736L50.006 113.837" stroke="#F1E7B2" stroke-miterlimit="10"/>
<path d="M49.0655 115.77L48.5261 116.88" stroke="#F1E7B2" stroke-miterlimit="10"/>
<path d="M76.1218 118.617V109.46" stroke="#F1E7B2" stroke-miterlimit="10"/>
<path d="M124.295 101.163L117.148 95.073" stroke="#F1E7B2" stroke-miterlimit="10"/>
<path d="M126.452 103.082L125.62 102.371" stroke="#F1E7B2" stroke-miterlimit="10"/>
<path d="M35.0991 95.0696L27.8749 101.224" stroke="#F1E7B2" stroke-miterlimit="10"/>
<path d="M43.9752 101.224L33.1742 115.019" stroke="#F1E7B2" stroke-width="2" stroke-miterlimit="10"/>
<path d="M64.8927 108.532L60.8407 125.986" stroke="#F1E7B2" stroke-width="2" stroke-miterlimit="10"/>
<path d="M27.8748 87.6594L12.3948 96.4947" stroke="#F1E7B2" stroke-width="2" stroke-miterlimit="10"/>
<path d="M119.309 115.045L108.39 101.163" stroke="#F1E7B2" stroke-width="2" stroke-miterlimit="10"/>
<path d="M138.972 95.8109L124.45 87.568" stroke="#F1E7B2" stroke-width="2" stroke-miterlimit="10"/>
<path d="M91.6019 126L87.4926 108.516" stroke="#F1E7B2" stroke-width="2" stroke-miterlimit="10"/>
<path d="M22.5587 79.0509L13.0488 82.409" stroke="#F1E7B2" stroke-miterlimit="10"/>
<path d="M10.7801 83.2079L9.47546 83.6683" stroke="#F1E7B2" stroke-miterlimit="10"/>
<path d="M19.255 69.8567L0.167847 73.1065" stroke="#F1E7B2" stroke-width="2" stroke-miterlimit="10"/>
<path d="M127.777 79.0508L137.287 82.4089" stroke="#F1E7B2" stroke-miterlimit="10"/>
<path d="M139.556 83.2079L140.86 83.6683" stroke="#F1E7B2" stroke-miterlimit="10"/>
<path d="M131.081 69.8567L150.168 73.1065" stroke="#F1E7B2" stroke-width="2" stroke-miterlimit="10"/>
</svg>
