<?xml version="1.0" encoding="UTF-8"?>
<svg id="_레이어_2" data-name="레이어 2" xmlns="http://www.w3.org/2000/svg" viewBox="0 0 422.6 132.38">
  <defs>
    <style>
      .cls-1 {
        fill: #e8eaf6;
      }
    </style>
  </defs>
  <g id="_레이어_1-2" data-name="레이어 1">
    <g>
      <g>
        <path class="cls-1" d="M.76,116.84v-44.45c0-7.88-.32-11.22-.76-15.54h15.54c16.51,0,27.62,5.18,27.62,19.53,0,12.41-10.47,20.28-25.89,21.47v-1.73c5.93-.76,12.95-5.29,12.95-19.31,0-12.41-4.53-17.7-13.49-17.7-3.78,0-3.88.54-3.88,4.53v53.19c0,7.88.32,11.22.76,15.54H0c.43-4.32.76-7.66.76-15.54Z"/>
        <path class="cls-1" d="M64.3,55.77h2.05l25.25,64.74c1.51,3.88,2.81,7.98,4.75,11.87h-17.59c1.62-4.1.43-8.52-2.05-15.21l-6.15-16.08h-20.28l-5.72,15.21c-2.7,7.23-3.34,11.87-1.08,16.08h-8.52l29.35-76.61ZM69.59,98.28l-9.28-24.17-9.06,24.17h18.34Z"/>
        <path class="cls-1" d="M103.46,116.84v-44.45c0-7.88-.32-11.22-.76-15.54h15.32c16.83,0,26.22,6.47,26.22,16.62,0,7.66-7.34,13.81-15.32,15.43,4.1.97,6.47,3.34,8.63,7.12,6.37,11.22,9.49,33.77,13.7,36.04v.32h-15c-7.34-30.43-11.65-40.03-17.26-41v-1.29c8.63-2.05,12.41-6.91,12.41-16.18s-4.85-14.57-14.24-14.57h-1.62v57.51c0,7.88.32,11.22.76,15.54h-13.6c.43-4.32.76-7.66.76-15.54Z"/>
        <path class="cls-1" d="M183.63,55.77h2.05l25.25,64.74c1.51,3.88,2.81,7.98,4.75,11.87h-17.59c1.62-4.1.43-8.52-2.05-15.21l-6.15-16.08h-20.28l-5.72,15.21c-2.7,7.23-3.34,11.87-1.08,16.08h-8.52l29.35-76.61ZM188.91,98.28l-9.28-24.17-9.06,24.17h18.34Z"/>
        <path class="cls-1" d="M222.79,116.84v-44.45c0-7.88-.32-11.22-.76-15.54h13.6c-.43,4.32-.76,7.66-.76,15.54v57.51l1.94-.11c10.36-.65,16.72-3.99,21.26-6.26l-2.91,8.85h-33.12c.43-4.32.76-7.66.76-15.54Z"/>
        <path class="cls-1" d="M265.08,116.84v-44.45c0-7.88-.32-11.22-.76-15.54h13.6c-.43,4.32-.76,7.66-.76,15.54v57.51l1.94-.11c10.36-.65,16.72-3.99,21.26-6.26l-2.91,8.85h-33.12c.43-4.32.76-7.66.76-15.54Z"/>
        <path class="cls-1" d="M332.62,55.77h2.05l25.25,64.74c1.51,3.88,2.81,7.98,4.75,11.87h-17.59c1.62-4.1.43-8.52-2.05-15.21l-6.15-16.08h-20.28l-5.72,15.21c-2.7,7.23-3.34,11.87-1.08,16.08h-8.52l29.35-76.61ZM337.9,98.28l-9.28-24.17-9.06,24.17h18.34Z"/>
        <path class="cls-1" d="M389.15,95.26l-13.27-26.54c-2.48-4.86-4.32-8.63-7.23-11.87h16.08c.43,3.24,2.05,7.34,3.78,10.79l10.03,19.96,8.96-16.08c3.99-7.23,5.07-10.57,4.1-14.67h7.88l-19.64,33.12,16.08,30.53c2.59,4.96,4.32,8.42,6.69,11.87h-15.54c-.43-3.24-1.94-7.23-3.78-10.79l-12.73-24.06-12.3,21.69c-2.91,5.07-3.88,9.6-1.4,13.16h-9.6l21.9-37.12Z"/>
      </g>
      <g>
        <path class="cls-1" d="M64.26,26.99c.28-.03.59,0,.94.07.35.07.69.22,1.03.44.34.22.66.52.96.9.3.38.54.87.73,1.46.24.76.31,1.43.22,2.01s-.28,1.1-.56,1.53c-.29.44-.64.8-1.07,1.08-.43.28-.86.49-1.3.63l-3.94,1.23-4.56-14.58,3.5-1.09c.41-.13.86-.21,1.36-.25.49-.04.97.02,1.44.17.47.15.9.43,1.29.82.39.39.7.94.92,1.66.15.48.23.92.23,1.31,0,.39-.05.75-.15,1.08s-.24.62-.43.87c-.18.25-.39.47-.62.65v.04ZM63.58,23.87c-.14-.44-.32-.79-.55-1.04-.23-.25-.48-.44-.76-.56-.28-.12-.57-.17-.87-.16-.31.01-.61.07-.91.16l-1.55.48,1.47,4.72,1.59-.5c.27-.09.54-.22.79-.4s.46-.39.62-.65.26-.56.31-.9c.04-.35,0-.73-.14-1.16ZM66.03,30.32c-.15-.5-.37-.9-.63-1.2-.27-.3-.56-.52-.87-.66-.31-.14-.64-.2-.98-.2s-.66.05-.96.14l-1.71.53,1.66,5.31,1.79-.56c.34-.11.65-.26.93-.46s.5-.44.66-.72c.16-.28.26-.6.29-.96.03-.36-.03-.77-.17-1.23Z"/>
        <path class="cls-1" d="M71.25,28.16c.14.5.31.96.52,1.36.21.41.45.75.71,1.02.26.27.55.46.86.57s.64.11.99.02c.47-.13.81-.38,1-.75.2-.37.32-.78.38-1.22l1.54.4c-.09.74-.34,1.39-.75,1.96-.4.57-1.01.96-1.81,1.18-1.19.33-2.26.1-3.21-.69-.95-.79-1.67-2.06-2.15-3.81-.23-.83-.35-1.62-.36-2.35s.08-1.4.28-1.98c.2-.58.49-1.08.89-1.48.4-.4.88-.68,1.45-.84.64-.18,1.22-.19,1.73-.04.52.15.98.42,1.4.8.41.39.77.88,1.07,1.47s.55,1.25.75,1.98l.24.85-5.53,1.53ZM74.6,25.69c-.25-.91-.6-1.6-1.03-2.08-.44-.48-.96-.63-1.57-.47-.36.1-.63.29-.82.57-.18.28-.31.6-.38.95-.07.35-.09.71-.06,1.08.03.37.08.69.16.97l3.7-1.02Z"/>
        <path class="cls-1" d="M88.04,30.96c-.01.51-.06.97-.13,1.39-.07.42-.19.8-.35,1.13s-.39.6-.68.83c-.29.22-.65.39-1.08.49-.24.06-.47.09-.71.11-.23.02-.42.02-.57.01l-.15-1.67c.29.03.58.02.87-.05.41-.1.68-.29.82-.59.14-.3.22-.69.22-1.16v-1.75s-5.67-10.12-5.67-10.12l1.89-.45,4.07,7.95h.04s-.1-8.9-.1-8.9l1.83-.43-.31,13.22Z"/>
        <path class="cls-1" d="M98.6,21.11c.18.84.25,1.63.22,2.36-.03.73-.16,1.37-.38,1.93-.23.56-.55,1.03-.97,1.41-.42.38-.93.63-1.54.76-.59.12-1.16.1-1.69-.07-.54-.17-1.02-.47-1.46-.89s-.81-.96-1.14-1.61c-.32-.65-.57-1.4-.75-2.25-.18-.84-.25-1.64-.23-2.38.03-.74.15-1.39.37-1.95.22-.56.54-1.03.96-1.4s.93-.63,1.54-.76c.6-.13,1.18-.11,1.71.07.54.17,1.02.47,1.46.89.44.42.81.97,1.14,1.63.33.67.58,1.42.76,2.27ZM96.74,21.5c-.12-.58-.27-1.1-.46-1.59-.18-.48-.4-.89-.64-1.22-.25-.33-.52-.57-.82-.73-.3-.16-.62-.2-.95-.13-.34.07-.61.24-.82.5-.21.26-.36.6-.44.99-.08.4-.11.86-.08,1.37.03.51.1,1.06.22,1.64s.27,1.1.45,1.58.39.88.63,1.21c.24.33.51.57.81.73.3.16.62.2.95.13.35-.07.63-.24.84-.51.21-.26.36-.6.44-.99.08-.4.11-.85.09-1.36-.03-.51-.1-1.05-.22-1.62Z"/>
        <path class="cls-1" d="M101.86,14.97l1.27,6.79c.06.3.13.6.21.9s.21.58.36.81c.15.23.34.41.57.53.23.12.51.15.85.08.3-.06.56-.19.78-.4.22-.21.4-.48.53-.8s.21-.7.23-1.12c.02-.42,0-.87-.1-1.35l-1.14-6.11,1.8-.34,1.49,7.95c.08.42.17.88.28,1.36.1.48.21.91.31,1.3l-1.72.32c-.11-.35-.21-.69-.29-1.04-.09-.35-.15-.61-.18-.78h-.04c-.08.67-.31,1.25-.69,1.76-.38.51-.9.83-1.57.95-.58.11-1.07.08-1.47-.09-.4-.17-.73-.43-.99-.79-.26-.36-.48-.78-.65-1.28-.17-.5-.3-1.01-.4-1.53l-1.27-6.79,1.82-.34Z"/>
        <path class="cls-1" d="M113.29,13.18c.34-.48.78-.77,1.32-.86.11-.02.2-.03.26-.02l.23,1.91c-.06,0-.12,0-.18,0-.06,0-.12,0-.19.02-.34.06-.62.22-.85.48-.23.26-.4.59-.51.97-.12.39-.19.81-.2,1.27-.02.46.01.93.09,1.4l.91,5.4-1.83.31-1.34-7.98c-.07-.43-.16-.88-.25-1.37-.1-.49-.19-.93-.29-1.32l1.72-.29c.1.35.2.71.28,1.09s.16.75.22,1.1h.04c.03-.93.22-1.63.56-2.12Z"/>
        <path class="cls-1" d="M124.1,6.99c-.2-.04-.41-.05-.63-.02-.28.04-.51.14-.67.31-.16.16-.28.36-.36.59s-.11.49-.12.77c0,.28.02.58.06.87l.29,1.94,1.75-.26.22,1.47-1.73.25,1.36,9.24-1.79.26-1.36-9.24-1.39.2-.22-1.47,1.39-.2-.29-1.96c-.08-.56-.1-1.08-.06-1.56.04-.49.16-.92.35-1.3s.46-.69.81-.94c.35-.25.79-.41,1.31-.49.16-.02.32-.04.5-.04.17,0,.34.01.49.05l.09,1.51Z"/>
        <path class="cls-1" d="M128.99,10.83c.36-.47.81-.74,1.35-.81.11-.02.2-.02.26-.01l.17,1.91c-.06,0-.12,0-.18,0s-.12,0-.19.02c-.34.05-.63.2-.86.45-.23.26-.42.58-.55.96-.13.38-.21.8-.24,1.26-.03.46-.02.93.05,1.4l.74,5.43-1.84.25-1.09-8.02c-.06-.43-.13-.89-.21-1.38-.08-.49-.16-.93-.25-1.33l1.73-.24c.09.35.17.72.25,1.1.07.38.13.75.18,1.11h.04c.06-.93.27-1.63.63-2.1Z"/>
        <path class="cls-1" d="M134.03,6.69c.04.36-.03.66-.22.92-.19.26-.45.4-.76.44-.33.04-.61-.04-.86-.24-.24-.2-.39-.48-.43-.84-.04-.34.03-.65.21-.91.18-.26.44-.41.77-.46.33-.04.61.04.86.25.24.21.39.48.43.83ZM133.72,20.88l-1.34-10.75,1.82-.23,1.34,10.75-1.82.23Z"/>
        <path class="cls-1" d="M139.33,15.23c.06.52.16.99.3,1.43.14.44.32.81.54,1.12.22.31.47.54.76.7.29.16.62.21.98.18.49-.05.85-.25,1.11-.58.25-.33.44-.71.57-1.15l1.46.64c-.21.72-.56,1.32-1.05,1.82-.49.5-1.15.79-1.97.88-1.23.14-2.25-.26-3.06-1.19-.81-.93-1.32-2.3-1.52-4.1-.1-.86-.09-1.65.02-2.38.11-.73.3-1.36.59-1.91.29-.55.66-.99,1.11-1.32s.98-.53,1.56-.6c.66-.07,1.23,0,1.72.23.49.23.91.56,1.25,1.01.35.45.62.99.82,1.62s.34,1.33.43,2.07l.1.88-5.7.63ZM143.03,13.32c-.1-.94-.34-1.68-.69-2.22-.36-.54-.85-.78-1.48-.71-.37.04-.67.19-.9.43-.23.25-.4.54-.52.88-.12.34-.2.69-.23,1.06-.03.37-.03.7,0,.98l3.82-.42Z"/>
        <path class="cls-1" d="M153.45,18.75l-.64-6.89c-.03-.3-.07-.61-.13-.92-.06-.31-.15-.59-.28-.84-.13-.25-.31-.44-.52-.58-.22-.14-.49-.19-.84-.16-.3.03-.57.14-.81.33-.24.19-.44.44-.6.75-.16.31-.27.68-.33,1.1-.06.42-.07.87-.02,1.36l.58,6.2-1.83.17-.75-8.06c-.04-.43-.09-.89-.15-1.38-.06-.49-.12-.94-.19-1.34l1.74-.16c.08.35.14.71.2,1.07.05.36.09.62.11.79h.04c.14-.65.43-1.21.85-1.69s.97-.74,1.65-.8c.57-.05,1.05.02,1.44.23.39.21.7.51.93.89.23.38.41.83.53,1.34.12.51.2,1.03.25,1.56l.64,6.87-1.85.17Z"/>
        <path class="cls-1" d="M163.68,17.92l-.13-1.7h-.04c-.13.6-.37,1.12-.72,1.54s-.9.66-1.64.72c-.55.04-1.04-.07-1.5-.33s-.85-.64-1.18-1.13-.6-1.09-.81-1.79c-.2-.7-.34-1.47-.4-2.32-.06-.83-.05-1.6.04-2.31.09-.71.26-1.33.52-1.86.26-.53.59-.95,1-1.27.41-.31.89-.49,1.45-.53.63-.05,1.18.09,1.63.42.46.33.79.76.99,1.31h.04s-.53-7.02-.53-7.02l1.83-.14,1.23,16.27-1.79.13ZM163.27,12.53c-.04-.59-.13-1.13-.25-1.63s-.29-.93-.5-1.29c-.21-.36-.45-.64-.72-.83-.27-.19-.58-.28-.93-.25-.36.03-.66.16-.89.39-.23.23-.42.54-.56.93s-.23.83-.27,1.35c-.04.51-.04,1.06,0,1.65.04.59.12,1.13.24,1.62.12.49.27.92.46,1.28.19.36.42.64.69.83s.58.28.94.25c.34-.03.64-.16.89-.39.25-.23.45-.54.59-.93.14-.38.24-.83.29-1.34.05-.51.05-1.05,0-1.64Z"/>
        <path class="cls-1" d="M169.37,20.3l-1.49.09.9-5.59,1.79-.11-1.21,5.61Z"/>
        <path class="cls-1" d="M180.12,17.15c-.26.07-.51.11-.77.12-.83.04-1.44-.2-1.82-.71-.38-.51-.59-1.25-.63-2.19l-.32-6.59-1.38.07-.07-1.49,1.36-.07-.14-2.89,1.79-.09.14,2.89,1.92-.09.07,1.49-1.92.09.3,6.21c.03.63.15,1.08.35,1.35.2.27.49.4.86.38.13,0,.26-.03.41-.07s.26-.08.36-.12l.11,1.46c-.15.09-.36.18-.61.25Z"/>
        <path class="cls-1" d="M184.38,16.78l-1.85.07-.57-16.3,1.85-.07.26,7.31h.04c.17-.61.47-1.14.92-1.59.44-.45,1-.68,1.68-.71.57-.02,1.05.09,1.43.32.38.23.67.55.88.94.21.4.36.85.45,1.37.09.51.14,1.04.16,1.57l.24,6.9-1.85.07-.24-6.92c-.01-.3-.04-.61-.08-.93-.04-.32-.12-.6-.24-.86s-.28-.46-.49-.61c-.21-.15-.48-.22-.83-.21-.3.01-.58.1-.83.28-.25.17-.47.41-.64.71-.18.3-.31.66-.39,1.07-.09.41-.12.87-.1,1.36l.22,6.22Z"/>
        <path class="cls-1" d="M194.63,2.42c0,.36-.1.66-.31.89-.22.24-.48.36-.8.36-.33,0-.61-.1-.83-.33-.22-.22-.34-.52-.34-.88,0-.35.09-.64.3-.88.21-.24.48-.37.81-.38.33,0,.61.1.83.34.22.23.34.52.34.87ZM192.88,16.51l-.25-10.83,1.83-.04.25,10.83-1.83.04Z"/>
        <path class="cls-1" d="M203.33,16.34l-.08-6.92c0-.3-.02-.61-.05-.93-.03-.32-.1-.6-.21-.86-.11-.26-.27-.47-.47-.62-.2-.16-.48-.23-.82-.23-.3,0-.58.09-.84.26-.26.17-.48.4-.66.7s-.32.65-.42,1.06c-.1.41-.14.86-.14,1.35l.07,6.23-1.83.02-.09-8.09c0-.43-.02-.9-.04-1.39-.02-.5-.05-.95-.08-1.35l1.75-.02c.05.36.08.72.11,1.08.03.36.04.63.04.8h.04c.19-.64.52-1.17.99-1.61.46-.44,1.03-.66,1.71-.67.58,0,1.05.11,1.42.35.37.24.65.56.85.96.2.4.34.86.41,1.38.08.52.12,1.04.13,1.57l.08,6.9-1.86.02Z"/>
        <path class="cls-1" d="M213.41,16.34l-3.32-5.37h-.04l-.03,5.35h-1.83s.09-16.32.09-16.32h1.83s-.05,10.19-.05,10.19h.04s3.2-4.69,3.2-4.69h2.16s-3.74,5-3.74,5l3.88,5.85h-2.18Z"/>
        <path class="cls-1" d="M221.34,16.45l.23-10.83,1.83.04-.23,10.83-1.83-.04ZM223.7,2.45c0,.36-.13.65-.35.88-.23.23-.5.33-.82.33-.33,0-.6-.13-.81-.36-.21-.23-.31-.53-.3-.89,0-.35.12-.63.34-.87.22-.23.5-.35.83-.34s.6.13.81.37.31.54.3.88Z"/>
        <path class="cls-1" d="M231.76,16.74l.23-6.92c.01-.3,0-.61-.01-.93-.02-.32-.08-.61-.18-.87-.1-.26-.25-.48-.44-.64s-.47-.25-.81-.27c-.3-.01-.58.06-.85.22s-.5.38-.69.67c-.2.29-.35.64-.47,1.04-.11.41-.18.86-.2,1.35l-.21,6.23-1.83-.06.27-8.09c.01-.43.02-.9.02-1.39,0-.5,0-.95-.02-1.35l1.75.06c.03.36.05.72.06,1.08.01.36.01.63,0,.8h.04c.22-.62.57-1.15,1.06-1.56s1.06-.61,1.74-.59c.58.02,1.04.16,1.4.41.36.26.63.59.81,1,.18.41.3.87.35,1.39s.07,1.05.06,1.58l-.23,6.9-1.85-.06Z"/>
        <path class="cls-1" d="M243.94,17.5c-.26.04-.52.06-.78.04-.83-.04-1.41-.34-1.74-.89s-.46-1.3-.41-2.25l.35-6.59-1.38-.07.08-1.49,1.36.07.15-2.89,1.79.09-.15,2.89,1.92.1-.08,1.49-1.92-.1-.33,6.21c-.03.63.04,1.09.21,1.38.17.29.44.44.82.46.13,0,.27,0,.41-.03.14-.02.27-.05.37-.08l-.03,1.47c-.16.08-.38.14-.64.18Z"/>
        <path class="cls-1" d="M248.22,17.56l-1.85-.12,1.08-16.28,1.85.12-.48,7.3h.04c.23-.59.58-1.08,1.07-1.48.49-.4,1.07-.58,1.74-.53.57.04,1.04.19,1.39.46.35.27.61.61.78,1.02.17.41.27.88.31,1.4s.04,1.05,0,1.58l-.46,6.89-1.85-.12.46-6.91c.02-.3.03-.61.02-.93,0-.32-.06-.61-.15-.88-.09-.27-.23-.48-.42-.66-.19-.17-.46-.27-.8-.29-.3-.02-.59.04-.86.19-.27.15-.51.36-.71.65-.21.28-.37.63-.5,1.03-.13.4-.21.85-.24,1.34l-.41,6.22Z"/>
        <path class="cls-1" d="M258.33,13.33c-.04.52-.04,1.01.02,1.46.06.45.16.85.31,1.2s.36.62.61.83c.26.21.56.33.92.36.49.04.89-.08,1.2-.36s.57-.62.78-1.02l1.31.91c-.34.66-.8,1.19-1.38,1.58-.57.39-1.28.56-2.11.49-1.23-.1-2.16-.69-2.78-1.76-.62-1.07-.85-2.51-.7-4.31.07-.86.23-1.64.48-2.33.25-.69.56-1.28.95-1.76.39-.48.84-.84,1.35-1.08.51-.24,1.06-.33,1.65-.28.66.05,1.21.24,1.64.56s.78.73,1.03,1.23c.25.51.42,1.09.49,1.75.07.66.08,1.37.02,2.11l-.07.88-5.72-.48ZM262.33,12.17c.08-.94,0-1.71-.25-2.31-.25-.6-.68-.93-1.31-.98-.37-.03-.69.05-.96.25-.27.2-.5.45-.68.76-.19.31-.33.64-.43,1s-.16.68-.19.96l3.83.32Z"/>
        <path class="cls-1" d="M266.06,18.96l1.03-10.78,1.83.17-1.03,10.78-1.83-.17ZM269.47,5.18c-.03.36-.17.64-.42.85-.24.21-.52.3-.84.27-.33-.03-.59-.17-.78-.42-.19-.25-.27-.55-.24-.91.03-.34.17-.62.41-.84.24-.22.52-.31.85-.28s.59.18.78.43c.19.26.27.56.24.9Z"/>
        <path class="cls-1" d="M274.89,9.23c.46-.37.96-.53,1.5-.47.11.01.2.03.25.05l-.29,1.9c-.06-.02-.11-.04-.17-.05-.06-.01-.12-.02-.19-.03-.34-.04-.66.04-.95.24-.29.19-.54.46-.76.8-.22.34-.4.73-.54,1.17s-.24.9-.29,1.37l-.58,5.45-1.85-.2.85-8.05c.05-.43.09-.89.13-1.39.04-.49.06-.94.08-1.35l1.74.18c0,.36,0,.74-.02,1.13-.02.39-.05.76-.09,1.12h.04c.28-.88.65-1.5,1.11-1.87Z"/>
        <path class="cls-1" d="M284.27,10.06l-.21,1.67h.04c.25-.56.58-1.01,1.01-1.34.43-.34,1.01-.46,1.75-.36.54.07,1.01.28,1.4.63.39.35.7.8.92,1.35.23.55.37,1.19.43,1.92.06.73.03,1.5-.07,2.33-.11.83-.28,1.58-.51,2.26-.23.68-.53,1.25-.89,1.71-.36.46-.77.81-1.23,1.04-.46.23-.98.31-1.53.24-.63-.08-1.13-.33-1.51-.75-.38-.42-.61-.92-.7-1.49h-.04s-.87,6.69-.87,6.69l-1.82-.23,2.05-15.88,1.78.23ZM283.58,15.42c-.08.58-.1,1.13-.08,1.65.02.52.09.97.23,1.36.13.39.31.71.54.96.23.25.52.39.86.44.36.05.67-.02.95-.2.28-.18.52-.45.73-.79.21-.35.39-.77.53-1.27.14-.5.25-1.03.33-1.62.07-.57.1-1.11.09-1.63-.01-.52-.08-.97-.19-1.36-.12-.39-.29-.71-.51-.96-.22-.25-.51-.39-.87-.44-.34-.04-.66.02-.95.2s-.55.44-.77.79c-.22.35-.4.77-.55,1.26s-.26,1.03-.34,1.59Z"/>
        <path class="cls-1" d="M293.27,17.22c-.08.52-.1,1-.08,1.46s.1.86.23,1.22c.13.36.31.65.56.87.24.23.54.37.9.42.48.07.89-.02,1.22-.28.33-.26.61-.58.84-.97l1.25.99c-.39.64-.88,1.13-1.48,1.49-.6.36-1.31.47-2.13.35-1.22-.18-2.11-.83-2.66-1.93s-.69-2.56-.42-4.35c.13-.85.34-1.62.63-2.3.29-.68.64-1.24,1.06-1.7.42-.45.89-.78,1.41-.99s1.08-.26,1.66-.18c.65.1,1.19.32,1.6.66s.73.78.95,1.3c.22.52.35,1.11.38,1.78.03.67,0,1.37-.12,2.11l-.13.88-5.68-.84ZM297.33,16.32c.14-.93.11-1.71-.1-2.32-.21-.62-.62-.97-1.25-1.06-.37-.05-.7,0-.98.19-.28.18-.52.42-.73.71-.2.3-.37.62-.49.97-.13.35-.21.67-.25.95l3.8.57Z"/>
        <path class="cls-1" d="M305.07,13.37c.48-.34.99-.47,1.53-.38.11.02.2.04.25.06l-.4,1.88c-.05-.02-.11-.04-.17-.06-.06-.02-.12-.03-.19-.04-.34-.06-.66,0-.96.18-.3.18-.57.43-.8.75-.24.33-.44.7-.6,1.14-.17.43-.29.88-.37,1.35l-.89,5.41-1.83-.3,1.32-7.98c.07-.43.14-.88.21-1.38.07-.49.12-.94.16-1.34l1.72.28c-.02.36-.05.74-.09,1.12s-.09.76-.15,1.11h.04c.33-.86.74-1.46,1.22-1.8Z"/>
        <path class="cls-1" d="M312.41,16.48c-.13-.3-.33-.57-.59-.8-.26-.23-.59-.38-.98-.45-.41-.07-.78.01-1.1.25-.32.24-.53.61-.62,1.11-.09.5-.02.88.22,1.16s.62.57,1.15.89c.28.17.54.36.81.57.26.21.48.47.67.77s.32.63.4,1c.08.37.07.8-.01,1.28-.1.55-.27,1.03-.51,1.42-.24.4-.53.71-.87.94s-.72.38-1.15.46c-.42.08-.87.07-1.34-.01-.64-.11-1.19-.35-1.67-.71-.48-.36-.85-.79-1.13-1.29l1.27-.98c.19.34.42.65.71.93.29.28.67.46,1.15.55.45.08.84-.02,1.16-.29.32-.28.53-.68.62-1.2.05-.3.05-.56-.01-.79-.06-.23-.16-.44-.31-.61-.14-.18-.32-.34-.54-.49-.21-.15-.45-.3-.7-.44s-.49-.32-.73-.5c-.24-.19-.44-.42-.61-.69-.17-.27-.29-.59-.36-.94-.07-.36-.06-.77.03-1.26.08-.47.24-.88.47-1.23.23-.35.51-.64.85-.87.33-.22.7-.38,1.11-.46.41-.08.83-.08,1.27,0,.64.12,1.17.32,1.59.63.42.3.75.66.98,1.07l-1.26,1Z"/>
        <path class="cls-1" d="M317.95,15.46l-.33,1.65h.04c.29-.54.65-.96,1.1-1.27.45-.31,1.04-.38,1.78-.24.54.11.99.35,1.35.72s.64.84.83,1.41c.19.57.28,1.21.29,1.94s-.07,1.5-.24,2.32c-.17.82-.39,1.56-.67,2.22-.28.66-.62,1.21-1,1.65-.39.44-.82.75-1.3.95-.48.2-.99.24-1.54.13-.62-.12-1.11-.41-1.46-.85-.35-.45-.55-.96-.59-1.54h-.04s-1.34,6.61-1.34,6.61l-1.8-.36,3.17-15.69,1.76.35ZM316.88,20.75c-.12.58-.18,1.12-.2,1.64-.02.52.03.98.13,1.38.1.4.26.73.47,1,.21.26.49.43.82.5.35.07.67.03.96-.13.29-.16.55-.41.79-.74.24-.33.44-.74.62-1.22.18-.48.33-1.01.44-1.59.11-.56.18-1.1.2-1.62.02-.52,0-.97-.1-1.37s-.23-.73-.44-.99c-.2-.26-.48-.43-.84-.5-.34-.07-.66-.02-.96.14-.3.16-.58.4-.82.73s-.46.74-.64,1.22-.34,1-.45,1.57Z"/>
        <path class="cls-1" d="M326.42,23.25c-.12.51-.18.99-.19,1.45s.04.87.14,1.23c.1.36.26.67.49.91s.51.41.86.49c.48.11.89.05,1.24-.18s.65-.53.91-.9l1.17,1.08c-.43.61-.96,1.07-1.58,1.37s-1.34.37-2.16.19c-1.21-.27-2.04-.98-2.5-2.13s-.49-2.6-.09-4.37c.19-.84.46-1.59.8-2.24s.74-1.19,1.19-1.61c.45-.42.95-.71,1.48-.88.54-.17,1.1-.18,1.67-.05.64.15,1.16.41,1.55.78s.67.83.85,1.37c.18.54.26,1.14.24,1.8s-.11,1.36-.28,2.09l-.2.86-5.6-1.27ZM330.53,22.66c.21-.92.23-1.69.07-2.32s-.55-1.02-1.16-1.16c-.36-.08-.69-.04-.99.12-.29.16-.55.38-.78.66-.23.28-.41.59-.56.93-.15.34-.26.65-.32.93l3.75.85Z"/>
        <path class="cls-1" d="M336.35,31.08c-.63-.16-1.14-.43-1.55-.82s-.7-.87-.89-1.45c-.19-.57-.28-1.22-.27-1.95s.12-1.5.33-2.34c.21-.84.48-1.58.82-2.22.33-.64.72-1.17,1.17-1.59s.94-.7,1.48-.85,1.13-.15,1.76,0c.56.14,1.01.35,1.34.64.34.28.59.57.75.85l-1.24,1.11c-.12-.24-.27-.45-.46-.63-.19-.18-.45-.31-.77-.39-.34-.08-.65-.06-.96.08s-.58.37-.83.68c-.25.32-.48.71-.69,1.18-.21.47-.38,1-.53,1.58-.15.59-.24,1.13-.29,1.63-.04.5-.03.95.05,1.34.08.39.23.72.44.98.22.26.51.44.89.54.32.08.61.09.87.02.26-.07.5-.18.72-.35l.45,1.58c-.73.5-1.6.62-2.61.37Z"/>
        <path class="cls-1" d="M343.42,32.78c-.26-.01-.52-.05-.77-.12-.8-.22-1.31-.63-1.51-1.24s-.18-1.37.07-2.28l1.73-6.37-1.33-.36.39-1.44,1.31.36.76-2.79,1.73.47-.76,2.79,1.85.5-.39,1.44-1.85-.5-1.63,6c-.17.61-.19,1.07-.09,1.39.11.32.34.53.7.63.13.03.26.05.41.06.15,0,.27,0,.38,0l-.34,1.43c-.17.04-.4.06-.66.04Z"/>
        <path class="cls-1" d="M345.78,33.25l3.02-10.4,1.76.51-3.02,10.4-1.76-.51ZM351.68,20.34c-.1.35-.29.6-.57.76-.28.16-.57.19-.87.11-.32-.09-.55-.28-.69-.56s-.16-.59-.06-.94c.1-.33.28-.58.55-.75.27-.17.57-.21.89-.11.32.09.55.28.69.57s.16.6.07.93Z"/>
        <path class="cls-1" d="M354.13,35.78l-2.06-.65.48-11.21,1.85.58-.7,9.1h.04s4.57-7.87,4.57-7.87l1.81.57-5.99,9.47Z"/>
        <path class="cls-1" d="M361.36,32.97c-.17.49-.29.96-.35,1.42-.06.45-.06.87,0,1.24.06.37.19.69.38.96.19.27.46.46.8.58.46.16.88.15,1.25-.04s.71-.45,1.01-.79l1.04,1.21c-.5.55-1.08.95-1.73,1.18-.66.24-1.38.21-2.16-.06-1.17-.41-1.91-1.21-2.24-2.4s-.19-2.64.42-4.35c.29-.81.64-1.53,1.05-2.13.41-.61.87-1.1,1.36-1.46.5-.37,1.02-.6,1.58-.7s1.11-.05,1.67.14c.62.22,1.11.54,1.45.96.34.42.57.9.69,1.46s.13,1.16.03,1.82c-.1.66-.27,1.34-.52,2.05l-.3.83-5.41-1.91ZM365.52,32.86c.31-.89.43-1.66.34-2.3-.09-.64-.43-1.07-1.02-1.28-.35-.12-.68-.12-1,0s-.59.31-.85.56c-.26.25-.48.54-.67.85-.19.32-.33.61-.43.88l3.62,1.28Z"/>
      </g>
    </g>
  </g>
</svg>